<svg width="283" height="168" viewBox="0 0 283 168" fill="none" xmlns="http://www.w3.org/2000/svg">
<path d="M170.5 57L170.974 56.4192L170.5 57ZM5.42365 0.520077C5.68872 0.20177 6.16162 0.1586 6.47992 0.423654L11.667 4.74296C11.9854 5.00801 12.0285 5.48092 11.7635 5.79923C11.4984 6.11753 11.0255 6.1607 10.7072 5.89565L6.09644 2.05627L2.25705 6.66703C1.99197 6.98534 1.51907 7.02851 1.20078 6.76346C0.882477 6.4984 0.839294 6.02549 1.10434 5.70719L5.42365 0.520077ZM282.051 167.248C239.825 170.13 209.843 163.247 189.086 151.597C168.32 139.941 156.836 123.541 151.578 107.497C146.328 91.4764 147.282 75.7939 151.413 65.547C153.474 60.4359 156.367 56.5759 159.783 54.7763C161.504 53.8697 163.354 53.4896 165.267 53.7459C167.175 54.0015 169.095 54.8834 170.974 56.4192L170.026 57.5808C168.315 56.1835 166.648 55.4443 165.068 55.2326C163.493 55.0215 161.955 55.3279 160.483 56.1034C157.512 57.6681 154.801 61.1548 152.804 66.1079C148.821 75.9893 147.851 91.3046 153.004 107.03C158.149 122.732 169.395 138.824 189.82 150.288C210.254 161.758 239.925 168.62 281.949 165.752L282.051 167.248ZM170.974 56.4192C173.265 58.2899 174.72 60.2429 175.34 62.2527C175.967 64.2826 175.718 66.2932 174.743 68.2033C172.826 71.9593 168.1 75.3422 161.616 78.1191C148.584 83.6996 127.821 87.0973 105.644 85.8112C83.4604 84.5248 59.7643 78.5463 40.9044 65.2775C22.0183 51.9902 8.02365 31.4183 5.25311 1.06818L6.74689 0.931819C9.47635 30.8317 23.2317 51.0098 41.7675 64.0507C60.3295 77.1099 83.7271 83.0377 105.731 84.3138C127.741 85.5902 148.26 82.2067 161.025 76.7402C167.439 73.9938 171.74 70.7868 173.407 67.5213C174.224 65.9207 174.406 64.3126 173.907 62.6953C173.401 61.0578 172.173 59.3351 170.026 57.5808L170.974 56.4192Z" fill="#7C858E"/>
</svg>
