<svg width="208" height="201" viewBox="0 0 208 201" fill="none" xmlns="http://www.w3.org/2000/svg">
<path id="Rectangle 60" d="M205.325 93.613C202.515 50.6179 201.111 29.1204 187.816 15.8113C186.265 14.2592 184.615 12.8109 182.874 11.4756C167.948 0.0256605 146.451 -1.07 103.455 1.73937L91.7662 2.50316C48.7711 5.31253 27.2736 9.21755 13.9646 22.5124C12.4125 24.0628 10.9641 25.7137 9.62884 27.4544C-1.82106 42.3802 -0.416381 63.8778 2.39299 106.873C5.20235 149.868 6.60704 171.365 19.9018 184.674C21.4523 186.227 23.1032 187.675 24.8439 189.01C39.7697 200.46 61.2673 202.389 104.262 199.58L115.952 198.816C158.947 196.007 180.444 191.268 193.753 177.973C195.305 176.423 196.754 174.772 198.089 173.031C209.539 158.106 208.134 136.608 205.325 93.613Z" fill="#C4C4C4"/>
</svg>
